<svg xmlns="http://www.w3.org/2000/svg" version="1.1" xmlns:xlink="http://www.w3.org/1999/xlink" xmlns:svgjs="http://svgjs.dev/svgjs" width="1440" height="560" preserveAspectRatio="none" viewBox="0 0 1440 560"><g mask="url(&quot;#SvgjsMask1003&quot;)" fill="none"><rect width="1440" height="560" x="0" y="0" fill="rgba(71, 21, 14, 1)"></rect><path d="M140 112.78C127.4 119.92 127.27 126.68 127.27 140C127.27 151.18 132.74 151.47 140 161.78C182.01 221.47 177.4 226.62 225.81 280C247.4 303.8 253.17 316.13 280 316.13C305.72 316.13 309.4 302.29 330.91 280C379.4 229.78 376.19 226.12 420 171.11C431.94 156.12 442.4 157.4 442.4 140C442.4 105.32 448.58 82.18 420 66.96C367.38 38.94 347.28 42.52 280 53.53C207.28 65.43 203.76 76.68 140 112.78" stroke="rgba(194, 51, 51, 0.58)" stroke-width="2"></path><path d="M1400 129.5C1393.98 129.5 1387.27 132.21 1387.27 140C1387.27 189.96 1394.37 245 1400 245C1405.62 245 1409.77 190.84 1409.77 140C1409.77 133.09 1405.23 129.5 1400 129.5" stroke="rgba(194, 51, 51, 0.58)" stroke-width="2"></path><path d="M420 385C408.04 385 396.39 403.53 396.39 420C396.39 433.28 408.08 444.5 420 444.5C432.14 444.5 444.5 433.32 444.5 420C444.5 403.57 432.1 385 420 385" stroke="rgba(194, 51, 51, 0.58)" stroke-width="2"></path><path d="M1540 367.03C1533.44 396.07 1508.39 393.03 1508.39 420C1508.39 450.14 1532.62 448.58 1540 481.25C1548.43 518.58 1565.2 545.83 1540 560C1495.2 585.2 1470 560 1400 560C1337.95 560 1333.17 569.23 1275.91 560C1263.17 557.94 1267.07 537.42 1260 537.42C1253.56 537.42 1260.32 558.16 1248.89 560C1190.32 569.45 1184.45 560 1120 560C1050 560 1050 560 980 560C917 560 916.17 563.32 854 560C846.17 559.58 847.7 552.53 840 552.53C809.59 552.53 809.01 558.33 777.78 560C739.01 562.07 738.89 560 700 560C665 560 664.83 562.45 630 560C594.83 557.52 593.35 550.14 560 550.14C553.42 550.14 556.91 559.52 550.14 560C486.91 564.45 485.07 560 420 560C350 560 350 560 280 560C210 560 210 560 140 560C70 560 35 595 0 560C-35 525 0 490 0 420C0 350 0 350 0 280C0 210 0 210 0 140C0 70 -35 35 0 0C35 -35 70 0 140 0C210 0 210 0 280 0C350 0 350 0 420 0C490 0 490 0 560 0C630 0 630 0 700 0C770 0 770 0 840 0C910 0 910 0 980 0C1050 0 1050 0 1120 0C1190 0 1190 0 1260 0C1330 0 1330 0 1400 0C1470 0 1505 -35 1540 0C1575 35 1540 70 1540 140C1540 210 1540 210 1540 280C1540 323.51 1549.25 326.07 1540 367.03" stroke="rgba(194, 51, 51, 0.58)" stroke-width="2"></path><path d="M140 15.56C103.57 70.3 81.82 79.11 81.82 140C81.82 191.11 109.47 190.72 140 239.56C153.23 260.72 150.23 264.4 169.35 280C220.23 321.5 227.12 313.72 280 353.76C319.56 383.72 318.37 385.57 354.22 420C388.37 452.81 386.8 488.25 420 488.25C453.81 488.25 488.25 457.11 488.25 420C488.25 374.24 455.52 370.17 420 322.5C403.37 300.17 383.94 301.41 383.94 280C383.94 258.13 402.91 258.69 420 235.93C455.48 188.69 473.6 194 489.07 140C507.39 76.04 464.21 46.14 487.59 0C499.68 -23.86 523.8 0 560 0C587.63 0 599.34 -18.43 615.26 0C659.8 51.57 667.13 66.68 680.91 140C693.44 206.68 671.03 209.85 667.87 280C664.72 349.85 695.74 363.81 668.3 420C641.81 474.24 611.72 457.61 560 500.85C527.99 527.61 536.45 544.96 500.85 560C466.45 574.54 460.42 560 420 560C372.95 560 367.72 573.07 325.9 560C297.72 551.19 306.23 516.25 280 516.25C239.53 516.25 238.05 545.76 192.5 560C168.05 567.64 166.25 560 140 560C70 560 38.78 591.22 0 560C-31.22 534.88 -9.37 500.03 0 447.32C3.07 430.03 18.39 436.95 24.89 420C50.47 353.29 72.58 336.58 64.17 280C60.13 252.83 12.29 279.31 0 252.5C-19.8 209.31 0 196.25 0 140C0 70 -35 35 0 0C35 -35 70 0 140 0C157.5 0 175 -3.71 175 0C175 4.07 150.16 0.3 140 15.56" stroke="rgba(194, 51, 51, 0.58)" stroke-width="2"></path><path d="M721 140C716.28 72.06 744.52 52.85 789.44 0C804.02 -17.15 814.72 0 840 0C910 0 910 0 980 0C1050 0 1050 0 1120 0C1174.84 0 1194 -25.76 1229.67 0C1264 24.79 1241.85 51.8 1260 101.11C1267.62 121.8 1272.08 119.84 1281.21 140C1312.6 209.29 1304.13 214.26 1341.05 280C1363.52 320.01 1371.24 315.18 1400 351.49C1426.68 385.18 1434.64 381.36 1451.94 420C1481.31 485.61 1509.17 517.3 1493.33 560C1483.2 587.3 1446.66 560 1400 560C1377.72 560 1370.28 574.35 1355.45 560C1300.28 506.61 1302.42 424.52 1260 424.52C1221.36 424.52 1240.45 514.4 1193.33 560C1170.45 582.14 1156.66 560 1120 560C1050 560 1050 560 980 560C960.75 560 959.05 566.79 941.5 560C889.05 539.72 887.86 537.4 840 505.87C781.6 467.4 736.21 472.56 728.97 420C720.65 359.63 810.86 349.12 808.89 280C806.87 209.12 726.01 212.06 721 140" stroke="rgba(194, 51, 51, 0.58)" stroke-width="2"></path><path d="M1400 42C1370.55 15.97 1332.8 11.36 1332.8 0C1332.8 -9.64 1366.4 0 1400 0C1470 0 1505 -35 1540 0C1575 35 1540 70 1540 140C1540 201.76 1551.77 263.53 1540 263.53C1527.35 263.53 1526.03 195.17 1491.16 140C1456.03 84.41 1449.73 85.97 1400 42" stroke="rgba(194, 51, 51, 0.58)" stroke-width="2"></path><path d="M0 49.68C9.43 49.68 36.36 97.09 36.36 140C36.36 167.25 10.05 190 0 190C-8.13 190 0 165 0 140C0 94.84 -8.75 49.68 0 49.68" stroke="rgba(194, 51, 51, 0.58)" stroke-width="2"></path><path d="M535.73 140C553.2 102.72 544.21 60.87 560 60.87C577.03 60.87 591.54 97.39 601.36 140C616.79 206.95 610.26 209.99 610.49 280C610.71 349.99 620.61 357.67 602.26 420C595.36 443.44 579.52 451.55 560 451.55C544.39 451.55 542.78 438.01 532 420C491.45 352.24 456.4 349.61 457.33 280C458.27 209.61 501.86 212.28 535.73 140" stroke="rgba(194, 51, 51, 0.58)" stroke-width="2"></path><path d="M808.5 140C808.5 111.26 812.04 89.27 840 80C897.79 60.84 921.56 105.95 980 83.13C1024 65.95 1004 24.27 1044.88 0C1074 -17.29 1082.44 0 1120 0C1145.66 0 1163.29 -18.75 1171.33 0C1193.29 51.25 1156.82 77.27 1180 140C1201.16 197.27 1223.04 188.07 1260 240C1272.86 258.07 1279.65 260.27 1279.65 280C1279.65 297.77 1272.72 299.6 1260 315C1214.9 369.6 1194.54 358.79 1164 420C1133.43 481.29 1157.34 497.77 1137.78 560C1135.34 567.77 1128.89 560 1120 560C1094.55 560 1091.17 570.3 1069.09 560C1021.17 537.64 1029.65 516.51 980 494.67C915.1 466.11 906.04 485.06 840 459.2C810.7 447.73 789.31 443.25 789.31 420C789.31 388.65 803.66 365.24 840 350C899.01 325.24 917.17 361.5 980 340C1019.48 326.5 1044.62 310.92 1044.62 280C1044.62 247.32 1020.32 232.11 980 212.8C918.01 183.11 902.76 208.64 840 182C817.01 172.24 808.5 162.26 808.5 140" stroke="rgba(194, 51, 51, 0.58)" stroke-width="2"></path><path d="M1540 96.25C1514.68 96.25 1452 28.74 1452 0C1452 -19.39 1518.99 -22.99 1540 0C1562.99 25.14 1558.68 96.25 1540 96.25" stroke="rgba(194, 51, 51, 0.58)" stroke-width="2"></path><path d="M102.67 420C102.67 385.16 108.78 355.03 140 350C197.45 340.73 213.53 364.36 280 391.4C299.56 399.36 312.05 404.21 312.05 420C312.05 439.29 303.18 452.51 280 461.56C217.15 486.11 197.57 500.69 140 487.2C108.91 479.91 102.67 453.76 102.67 420" stroke="rgba(194, 51, 51, 0.58)" stroke-width="2"></path><path d="M0 532.68C18.31 532.68 53.33 552.77 53.33 560C53.33 566.43 17.63 569.03 0 560C-9.03 555.37 -8.35 532.68 0 532.68" stroke="rgba(194, 51, 51, 0.58)" stroke-width="2"></path><path d="M383.28 560C383.28 552.2 402.16 532 420 532C436.3 532 451.55 551.99 451.55 560C451.55 565.99 435.77 560 420 560C401.64 560 383.28 566.2 383.28 560" stroke="rgba(194, 51, 51, 0.58)" stroke-width="2"></path></g><defs><mask id="SvgjsMask1003"><rect width="1440" height="560" fill="#ffffff"></rect></mask></defs></svg>