<svg xmlns="http://www.w3.org/2000/svg" version="1.1" xmlns:xlink="http://www.w3.org/1999/xlink" xmlns:svgjs="http://svgjs.dev/svgjs" width="1440" height="560" preserveAspectRatio="none" viewBox="0 0 1440 560"><g mask="url(&quot;#SvgjsMask1009&quot;)" fill="none"><rect width="1440" height="560" x="0" y="0" fill="rgba(7, 36, 14, 1)"></rect><path d="M259 295L258 598" stroke-width="8" stroke="url(&quot;#SvgjsLinearGradient1010&quot;)" stroke-linecap="round" class="Down"></path><path d="M393 556L392 289" stroke-width="6" stroke="url(&quot;#SvgjsLinearGradient1010&quot;)" stroke-linecap="round" class="Down"></path><path d="M1145 451L1144 80" stroke-width="10" stroke="url(&quot;#SvgjsLinearGradient1011&quot;)" stroke-linecap="round" class="Up"></path><path d="M1364 300L1363 666" stroke-width="6" stroke="url(&quot;#SvgjsLinearGradient1010&quot;)" stroke-linecap="round" class="Down"></path><path d="M831 542L830 947" stroke-width="10" stroke="url(&quot;#SvgjsLinearGradient1011&quot;)" stroke-linecap="round" class="Up"></path><path d="M1044 369L1043 28" stroke-width="6" stroke="url(&quot;#SvgjsLinearGradient1011&quot;)" stroke-linecap="round" class="Up"></path><path d="M1189 284L1188 665" stroke-width="6" stroke="url(&quot;#SvgjsLinearGradient1011&quot;)" stroke-linecap="round" class="Up"></path><path d="M578 500L577 217" stroke-width="6" stroke="url(&quot;#SvgjsLinearGradient1011&quot;)" stroke-linecap="round" class="Up"></path><path d="M129 85L128 -60" stroke-width="6" stroke="url(&quot;#SvgjsLinearGradient1011&quot;)" stroke-linecap="round" class="Up"></path><path d="M1037 468L1036 650" stroke-width="8" stroke="url(&quot;#SvgjsLinearGradient1011&quot;)" stroke-linecap="round" class="Up"></path><path d="M274 206L273 -170" stroke-width="10" stroke="url(&quot;#SvgjsLinearGradient1010&quot;)" stroke-linecap="round" class="Down"></path><path d="M1248 277L1247 543" stroke-width="10" stroke="url(&quot;#SvgjsLinearGradient1011&quot;)" stroke-linecap="round" class="Up"></path><path d="M1386 123L1385 -278" stroke-width="8" stroke="url(&quot;#SvgjsLinearGradient1010&quot;)" stroke-linecap="round" class="Down"></path><path d="M1188 334L1187 625" stroke-width="6" stroke="url(&quot;#SvgjsLinearGradient1010&quot;)" stroke-linecap="round" class="Down"></path><path d="M1126 93L1125 236" stroke-width="6" stroke="url(&quot;#SvgjsLinearGradient1011&quot;)" stroke-linecap="round" class="Up"></path><path d="M724 18L723 323" stroke-width="8" stroke="url(&quot;#SvgjsLinearGradient1011&quot;)" stroke-linecap="round" class="Up"></path><path d="M578 400L577 574" stroke-width="8" stroke="url(&quot;#SvgjsLinearGradient1010&quot;)" stroke-linecap="round" class="Down"></path><path d="M969 242L968 -155" stroke-width="8" stroke="url(&quot;#SvgjsLinearGradient1011&quot;)" stroke-linecap="round" class="Up"></path><path d="M495 159L494 -247" stroke-width="8" stroke="url(&quot;#SvgjsLinearGradient1011&quot;)" stroke-linecap="round" class="Up"></path><path d="M72 372L71 123" stroke-width="8" stroke="url(&quot;#SvgjsLinearGradient1010&quot;)" stroke-linecap="round" class="Down"></path><path d="M501 72L500 -159" stroke-width="6" stroke="url(&quot;#SvgjsLinearGradient1011&quot;)" stroke-linecap="round" class="Up"></path><path d="M571 136L570 -160" stroke-width="10" stroke="url(&quot;#SvgjsLinearGradient1010&quot;)" stroke-linecap="round" class="Down"></path><path d="M332 472L331 281" stroke-width="6" stroke="url(&quot;#SvgjsLinearGradient1010&quot;)" stroke-linecap="round" class="Down"></path><path d="M299 149L298 -201" stroke-width="6" stroke="url(&quot;#SvgjsLinearGradient1010&quot;)" stroke-linecap="round" class="Down"></path><path d="M1131 120L1130 -104" stroke-width="6" stroke="url(&quot;#SvgjsLinearGradient1011&quot;)" stroke-linecap="round" class="Up"></path><path d="M527 202L526 -49" stroke-width="8" stroke="url(&quot;#SvgjsLinearGradient1011&quot;)" stroke-linecap="round" class="Up"></path><path d="M65 333L64 93" stroke-width="6" stroke="url(&quot;#SvgjsLinearGradient1011&quot;)" stroke-linecap="round" class="Up"></path><path d="M332 74L331 -319" stroke-width="6" stroke="url(&quot;#SvgjsLinearGradient1011&quot;)" stroke-linecap="round" class="Up"></path><path d="M888 455L887 822" stroke-width="10" stroke="url(&quot;#SvgjsLinearGradient1010&quot;)" stroke-linecap="round" class="Down"></path><path d="M334 114L333 -59" stroke-width="8" stroke="url(&quot;#SvgjsLinearGradient1010&quot;)" stroke-linecap="round" class="Down"></path><path d="M532 543L531 168" stroke-width="6" stroke="url(&quot;#SvgjsLinearGradient1010&quot;)" stroke-linecap="round" class="Down"></path><path d="M905 402L904 108" stroke-width="6" stroke="url(&quot;#SvgjsLinearGradient1011&quot;)" stroke-linecap="round" class="Up"></path><path d="M586 24L585 -360" stroke-width="6" stroke="url(&quot;#SvgjsLinearGradient1011&quot;)" stroke-linecap="round" class="Up"></path><path d="M898 338L897 109" stroke-width="6" stroke="url(&quot;#SvgjsLinearGradient1011&quot;)" stroke-linecap="round" class="Up"></path><path d="M32 498L31 692" stroke-width="10" stroke="url(&quot;#SvgjsLinearGradient1010&quot;)" stroke-linecap="round" class="Down"></path><path d="M1313 132L1312 -23" stroke-width="8" stroke="url(&quot;#SvgjsLinearGradient1010&quot;)" stroke-linecap="round" class="Down"></path></g><defs><mask id="SvgjsMask1009"><rect width="1440" height="560" fill="#ffffff"></rect></mask><linearGradient x1="0%" y1="0%" x2="0%" y2="100%" id="SvgjsLinearGradient1010"><stop stop-color="rgba(28, 142, 31, 0)" offset="0"></stop><stop stop-color="rgba(28, 142, 31, 1)" offset="1"></stop></linearGradient><linearGradient x1="0%" y1="100%" x2="0%" y2="0%" id="SvgjsLinearGradient1011"><stop stop-color="rgba(28, 142, 31, 0)" offset="0"></stop><stop stop-color="rgba(28, 142, 31, 1)" offset="1"></stop></linearGradient></defs></svg>