<svg xmlns="http://www.w3.org/2000/svg" version="1.1" xmlns:xlink="http://www.w3.org/1999/xlink" xmlns:svgjs="http://svgjs.dev/svgjs" width="1440" height="560" preserveAspectRatio="none" viewBox="0 0 1440 560"><g mask="url(&quot;#SvgjsMask1024&quot;)" fill="none"><rect width="1440" height="560" x="0" y="0" fill="rgba(58, 60, 40, 1)"></rect><path d="M-89.74 385.89L-89.74 385.89" stroke="rgba(94, 101, 19, 1)" stroke-width="1.5"></path><path d="M-89.74 385.89L-43.33 531.1" stroke="rgba(94, 101, 19, 1)" stroke-width="1.5"></path><path d="M-89.74 385.89L73.09 358.76" stroke="rgba(94, 101, 19, 1)" stroke-width="1.5"></path><path d="M-89.74 385.89L73.2 548.68" stroke="rgba(94, 101, 19, 1)" stroke-width="1.5"></path><path d="M-89.74 385.89L-59.18 658.02" stroke="rgba(94, 101, 19, 1)" stroke-width="1.5"></path><path d="M-89.74 385.89L240.46 410.94" stroke="rgba(94, 101, 19, 1)" stroke-width="1.5"></path><path d="M-43.33 531.1L-43.33 531.1" stroke="rgba(94, 101, 19, 1)" stroke-width="1.5"></path><path d="M-43.33 531.1L73.2 548.68" stroke="rgba(94, 101, 19, 1)" stroke-width="1.5"></path><path d="M-43.33 531.1L-59.18 658.02" stroke="rgba(94, 101, 19, 1)" stroke-width="1.5"></path><path d="M-59.18 658.02L-59.18 658.02" stroke="rgba(94, 101, 19, 1)" stroke-width="1.5"></path><path d="M-59.18 658.02L40.83 711.07" stroke="rgba(94, 101, 19, 1)" stroke-width="1.5"></path><path d="M73.09 358.76L73.09 358.76" stroke="rgba(94, 101, 19, 1)" stroke-width="1.5"></path><path d="M73.09 358.76L240.46 410.94" stroke="rgba(94, 101, 19, 1)" stroke-width="1.5"></path><path d="M73.09 358.76L73.2 548.68" stroke="rgba(94, 101, 19, 1)" stroke-width="1.5"></path><path d="M73.2 548.68L73.2 548.68" stroke="rgba(94, 101, 19, 1)" stroke-width="1.5"></path><path d="M73.2 548.68L212.28 531.85" stroke="rgba(94, 101, 19, 1)" stroke-width="1.5"></path><path d="M73.2 548.68L40.83 711.07" stroke="rgba(94, 101, 19, 1)" stroke-width="1.5"></path><path d="M40.83 711.07L40.83 711.07" stroke="rgba(94, 101, 19, 1)" stroke-width="1.5"></path><path d="M40.83 711.07L219.64 658.04" stroke="rgba(94, 101, 19, 1)" stroke-width="1.5"></path><path d="M40.83 711.07L-43.33 531.1" stroke="rgba(94, 101, 19, 1)" stroke-width="1.5"></path><path d="M40.83 711.07L212.28 531.85" stroke="rgba(94, 101, 19, 1)" stroke-width="1.5"></path><path d="M40.83 711.07L345.01 667.47" stroke="rgba(94, 101, 19, 1)" stroke-width="1.5"></path><path d="M240.46 410.94L240.46 410.94" stroke="rgba(94, 101, 19, 1)" stroke-width="1.5"></path><path d="M240.46 410.94L212.28 531.85" stroke="rgba(94, 101, 19, 1)" stroke-width="1.5"></path><path d="M240.46 410.94L346.02 534.32" stroke="rgba(94, 101, 19, 1)" stroke-width="1.5"></path><path d="M240.46 410.94L407.2 355.16" stroke="rgba(94, 101, 19, 1)" stroke-width="1.5"></path><path d="M240.46 410.94L73.2 548.68" stroke="rgba(94, 101, 19, 1)" stroke-width="1.5"></path><path d="M240.46 410.94L219.64 658.04" stroke="rgba(94, 101, 19, 1)" stroke-width="1.5"></path><path d="M212.28 531.85L212.28 531.85" stroke="rgba(94, 101, 19, 1)" stroke-width="1.5"></path><path d="M212.28 531.85L219.64 658.04" stroke="rgba(94, 101, 19, 1)" stroke-width="1.5"></path><path d="M219.64 658.04L219.64 658.04" stroke="rgba(94, 101, 19, 1)" stroke-width="1.5"></path><path d="M219.64 658.04L345.01 667.47" stroke="rgba(94, 101, 19, 1)" stroke-width="1.5"></path><path d="M219.64 658.04L346.02 534.32" stroke="rgba(94, 101, 19, 1)" stroke-width="1.5"></path><path d="M219.64 658.04L73.2 548.68" stroke="rgba(94, 101, 19, 1)" stroke-width="1.5"></path><path d="M407.2 355.16L407.2 355.16" stroke="rgba(94, 101, 19, 1)" stroke-width="1.5"></path><path d="M407.2 355.16L346.02 534.32" stroke="rgba(94, 101, 19, 1)" stroke-width="1.5"></path><path d="M407.2 355.16L517.93 544.65" stroke="rgba(94, 101, 19, 1)" stroke-width="1.5"></path><path d="M407.2 355.16L639.48 347.66" stroke="rgba(94, 101, 19, 1)" stroke-width="1.5"></path><path d="M407.2 355.16L212.28 531.85" stroke="rgba(94, 101, 19, 1)" stroke-width="1.5"></path><path d="M407.2 355.16L653.84 493.39" stroke="rgba(94, 101, 19, 1)" stroke-width="1.5"></path><path d="M346.02 534.32L346.02 534.32" stroke="rgba(94, 101, 19, 1)" stroke-width="1.5"></path><path d="M346.02 534.32L345.01 667.47" stroke="rgba(94, 101, 19, 1)" stroke-width="1.5"></path><path d="M346.02 534.32L212.28 531.85" stroke="rgba(94, 101, 19, 1)" stroke-width="1.5"></path><path d="M346.02 534.32L517.93 544.65" stroke="rgba(94, 101, 19, 1)" stroke-width="1.5"></path><path d="M345.01 667.47L345.01 667.47" stroke="rgba(94, 101, 19, 1)" stroke-width="1.5"></path><path d="M345.01 667.47L488.53 671.24" stroke="rgba(94, 101, 19, 1)" stroke-width="1.5"></path><path d="M345.01 667.47L212.28 531.85" stroke="rgba(94, 101, 19, 1)" stroke-width="1.5"></path><path d="M517.93 544.65L517.93 544.65" stroke="rgba(94, 101, 19, 1)" stroke-width="1.5"></path><path d="M517.93 544.65L488.53 671.24" stroke="rgba(94, 101, 19, 1)" stroke-width="1.5"></path><path d="M517.93 544.65L653.84 493.39" stroke="rgba(94, 101, 19, 1)" stroke-width="1.5"></path><path d="M517.93 544.65L643.38 642.51" stroke="rgba(94, 101, 19, 1)" stroke-width="1.5"></path><path d="M488.53 671.24L488.53 671.24" stroke="rgba(94, 101, 19, 1)" stroke-width="1.5"></path><path d="M488.53 671.24L643.38 642.51" stroke="rgba(94, 101, 19, 1)" stroke-width="1.5"></path><path d="M488.53 671.24L346.02 534.32" stroke="rgba(94, 101, 19, 1)" stroke-width="1.5"></path><path d="M488.53 671.24L653.84 493.39" stroke="rgba(94, 101, 19, 1)" stroke-width="1.5"></path><path d="M488.53 671.24L219.64 658.04" stroke="rgba(94, 101, 19, 1)" stroke-width="1.5"></path><path d="M697.08 204.06L697.08 204.06" stroke="rgba(94, 101, 19, 1)" stroke-width="1.5"></path><path d="M697.08 204.06L639.48 347.66" stroke="rgba(94, 101, 19, 1)" stroke-width="1.5"></path><path d="M697.08 204.06L858.18 220.18" stroke="rgba(94, 101, 19, 1)" stroke-width="1.5"></path><path d="M639.48 347.66L639.48 347.66" stroke="rgba(94, 101, 19, 1)" stroke-width="1.5"></path><path d="M639.48 347.66L653.84 493.39" stroke="rgba(94, 101, 19, 1)" stroke-width="1.5"></path><path d="M639.48 347.66L834.99 398.72" stroke="rgba(94, 101, 19, 1)" stroke-width="1.5"></path><path d="M653.84 493.39L653.84 493.39" stroke="rgba(94, 101, 19, 1)" stroke-width="1.5"></path><path d="M653.84 493.39L643.38 642.51" stroke="rgba(94, 101, 19, 1)" stroke-width="1.5"></path><path d="M653.84 493.39L796.95 540.07" stroke="rgba(94, 101, 19, 1)" stroke-width="1.5"></path><path d="M653.84 493.39L834.99 398.72" stroke="rgba(94, 101, 19, 1)" stroke-width="1.5"></path><path d="M643.38 642.51L643.38 642.51" stroke="rgba(94, 101, 19, 1)" stroke-width="1.5"></path><path d="M643.38 642.51L796.95 540.07" stroke="rgba(94, 101, 19, 1)" stroke-width="1.5"></path><path d="M643.38 642.51L858.04 654.61" stroke="rgba(94, 101, 19, 1)" stroke-width="1.5"></path><path d="M643.38 642.51L639.48 347.66" stroke="rgba(94, 101, 19, 1)" stroke-width="1.5"></path><path d="M858.18 220.18L858.18 220.18" stroke="rgba(94, 101, 19, 1)" stroke-width="1.5"></path><path d="M858.18 220.18L834.99 398.72" stroke="rgba(94, 101, 19, 1)" stroke-width="1.5"></path><path d="M834.99 398.72L834.99 398.72" stroke="rgba(94, 101, 19, 1)" stroke-width="1.5"></path><path d="M834.99 398.72L966.23 399.88" stroke="rgba(94, 101, 19, 1)" stroke-width="1.5"></path><path d="M834.99 398.72L796.95 540.07" stroke="rgba(94, 101, 19, 1)" stroke-width="1.5"></path><path d="M796.95 540.07L796.95 540.07" stroke="rgba(94, 101, 19, 1)" stroke-width="1.5"></path><path d="M796.95 540.07L858.04 654.61" stroke="rgba(94, 101, 19, 1)" stroke-width="1.5"></path><path d="M858.04 654.61L858.04 654.61" stroke="rgba(94, 101, 19, 1)" stroke-width="1.5"></path><path d="M858.04 654.61L975.23 677.71" stroke="rgba(94, 101, 19, 1)" stroke-width="1.5"></path><path d="M858.04 654.61L969.62 528.55" stroke="rgba(94, 101, 19, 1)" stroke-width="1.5"></path><path d="M992.08 -51.58L992.08 -51.58" stroke="rgba(94, 101, 19, 1)" stroke-width="1.5"></path><path d="M992.08 -51.58L943.02 41.28" stroke="rgba(94, 101, 19, 1)" stroke-width="1.5"></path><path d="M992.08 -51.58L1123.49 -67.62" stroke="rgba(94, 101, 19, 1)" stroke-width="1.5"></path><path d="M992.08 -51.58L1133.6 81.19" stroke="rgba(94, 101, 19, 1)" stroke-width="1.5"></path><path d="M992.08 -51.58L1107.72 226.55" stroke="rgba(94, 101, 19, 1)" stroke-width="1.5"></path><path d="M992.08 -51.58L858.18 220.18" stroke="rgba(94, 101, 19, 1)" stroke-width="1.5"></path><path d="M943.02 41.28L943.02 41.28" stroke="rgba(94, 101, 19, 1)" stroke-width="1.5"></path><path d="M943.02 41.28L1133.6 81.19" stroke="rgba(94, 101, 19, 1)" stroke-width="1.5"></path><path d="M943.02 41.28L858.18 220.18" stroke="rgba(94, 101, 19, 1)" stroke-width="1.5"></path><path d="M943.02 41.28L1123.49 -67.62" stroke="rgba(94, 101, 19, 1)" stroke-width="1.5"></path><path d="M966.23 399.88L966.23 399.88" stroke="rgba(94, 101, 19, 1)" stroke-width="1.5"></path><path d="M966.23 399.88L969.62 528.55" stroke="rgba(94, 101, 19, 1)" stroke-width="1.5"></path><path d="M966.23 399.88L1159.78 378.99" stroke="rgba(94, 101, 19, 1)" stroke-width="1.5"></path><path d="M966.23 399.88L858.18 220.18" stroke="rgba(94, 101, 19, 1)" stroke-width="1.5"></path><path d="M966.23 399.88L1157.55 499.32" stroke="rgba(94, 101, 19, 1)" stroke-width="1.5"></path><path d="M969.62 528.55L969.62 528.55" stroke="rgba(94, 101, 19, 1)" stroke-width="1.5"></path><path d="M969.62 528.55L975.23 677.71" stroke="rgba(94, 101, 19, 1)" stroke-width="1.5"></path><path d="M969.62 528.55L796.95 540.07" stroke="rgba(94, 101, 19, 1)" stroke-width="1.5"></path><path d="M969.62 528.55L834.99 398.72" stroke="rgba(94, 101, 19, 1)" stroke-width="1.5"></path><path d="M975.23 677.71L975.23 677.71" stroke="rgba(94, 101, 19, 1)" stroke-width="1.5"></path><path d="M975.23 677.71L1127 654.75" stroke="rgba(94, 101, 19, 1)" stroke-width="1.5"></path><path d="M975.23 677.71L796.95 540.07" stroke="rgba(94, 101, 19, 1)" stroke-width="1.5"></path><path d="M1123.49 -67.62L1123.49 -67.62" stroke="rgba(94, 101, 19, 1)" stroke-width="1.5"></path><path d="M1123.49 -67.62L1133.6 81.19" stroke="rgba(94, 101, 19, 1)" stroke-width="1.5"></path><path d="M1123.49 -67.62L1295.28 50.06" stroke="rgba(94, 101, 19, 1)" stroke-width="1.5"></path><path d="M1133.6 81.19L1133.6 81.19" stroke="rgba(94, 101, 19, 1)" stroke-width="1.5"></path><path d="M1133.6 81.19L1107.72 226.55" stroke="rgba(94, 101, 19, 1)" stroke-width="1.5"></path><path d="M1133.6 81.19L1295.28 50.06" stroke="rgba(94, 101, 19, 1)" stroke-width="1.5"></path><path d="M1107.72 226.55L1107.72 226.55" stroke="rgba(94, 101, 19, 1)" stroke-width="1.5"></path><path d="M1107.72 226.55L1159.78 378.99" stroke="rgba(94, 101, 19, 1)" stroke-width="1.5"></path><path d="M1159.78 378.99L1159.78 378.99" stroke="rgba(94, 101, 19, 1)" stroke-width="1.5"></path><path d="M1159.78 378.99L1157.55 499.32" stroke="rgba(94, 101, 19, 1)" stroke-width="1.5"></path><path d="M1159.78 378.99L1269.66 492.6" stroke="rgba(94, 101, 19, 1)" stroke-width="1.5"></path><path d="M1159.78 378.99L1286.5 236.98" stroke="rgba(94, 101, 19, 1)" stroke-width="1.5"></path><path d="M1157.55 499.32L1157.55 499.32" stroke="rgba(94, 101, 19, 1)" stroke-width="1.5"></path><path d="M1157.55 499.32L1269.66 492.6" stroke="rgba(94, 101, 19, 1)" stroke-width="1.5"></path><path d="M1157.55 499.32L1127 654.75" stroke="rgba(94, 101, 19, 1)" stroke-width="1.5"></path><path d="M1157.55 499.32L969.62 528.55" stroke="rgba(94, 101, 19, 1)" stroke-width="1.5"></path><path d="M1157.55 499.32L1300.29 646.21" stroke="rgba(94, 101, 19, 1)" stroke-width="1.5"></path><path d="M1127 654.75L1127 654.75" stroke="rgba(94, 101, 19, 1)" stroke-width="1.5"></path><path d="M1127 654.75L1300.29 646.21" stroke="rgba(94, 101, 19, 1)" stroke-width="1.5"></path><path d="M1295.28 50.06L1295.28 50.06" stroke="rgba(94, 101, 19, 1)" stroke-width="1.5"></path><path d="M1295.28 50.06L1388.82 -42.09" stroke="rgba(94, 101, 19, 1)" stroke-width="1.5"></path><path d="M1286.5 236.98L1286.5 236.98" stroke="rgba(94, 101, 19, 1)" stroke-width="1.5"></path><path d="M1286.5 236.98L1444.87 241.06" stroke="rgba(94, 101, 19, 1)" stroke-width="1.5"></path><path d="M1286.5 236.98L1107.72 226.55" stroke="rgba(94, 101, 19, 1)" stroke-width="1.5"></path><path d="M1286.5 236.98L1295.28 50.06" stroke="rgba(94, 101, 19, 1)" stroke-width="1.5"></path><path d="M1286.5 236.98L1420.7 403.01" stroke="rgba(94, 101, 19, 1)" stroke-width="1.5"></path><path d="M1286.5 236.98L1133.6 81.19" stroke="rgba(94, 101, 19, 1)" stroke-width="1.5"></path><path d="M1269.66 492.6L1269.66 492.6" stroke="rgba(94, 101, 19, 1)" stroke-width="1.5"></path><path d="M1269.66 492.6L1407.17 511.77" stroke="rgba(94, 101, 19, 1)" stroke-width="1.5"></path><path d="M1269.66 492.6L1300.29 646.21" stroke="rgba(94, 101, 19, 1)" stroke-width="1.5"></path><path d="M1269.66 492.6L1420.7 403.01" stroke="rgba(94, 101, 19, 1)" stroke-width="1.5"></path><path d="M1300.29 646.21L1300.29 646.21" stroke="rgba(94, 101, 19, 1)" stroke-width="1.5"></path><path d="M1300.29 646.21L1407.17 511.77" stroke="rgba(94, 101, 19, 1)" stroke-width="1.5"></path><path d="M1300.29 646.21L1420.7 403.01" stroke="rgba(94, 101, 19, 1)" stroke-width="1.5"></path><path d="M1388.82 -42.09L1388.82 -42.09" stroke="rgba(94, 101, 19, 1)" stroke-width="1.5"></path><path d="M1388.82 -42.09L1569.93 71.55" stroke="rgba(94, 101, 19, 1)" stroke-width="1.5"></path><path d="M1388.82 -42.09L1123.49 -67.62" stroke="rgba(94, 101, 19, 1)" stroke-width="1.5"></path><path d="M1444.87 241.06L1444.87 241.06" stroke="rgba(94, 101, 19, 1)" stroke-width="1.5"></path><path d="M1444.87 241.06L1578.91 229.78" stroke="rgba(94, 101, 19, 1)" stroke-width="1.5"></path><path d="M1444.87 241.06L1420.7 403.01" stroke="rgba(94, 101, 19, 1)" stroke-width="1.5"></path><path d="M1420.7 403.01L1420.7 403.01" stroke="rgba(94, 101, 19, 1)" stroke-width="1.5"></path><path d="M1420.7 403.01L1407.17 511.77" stroke="rgba(94, 101, 19, 1)" stroke-width="1.5"></path><path d="M1420.7 403.01L1580.14 359.71" stroke="rgba(94, 101, 19, 1)" stroke-width="1.5"></path><path d="M1407.17 511.77L1407.17 511.77" stroke="rgba(94, 101, 19, 1)" stroke-width="1.5"></path><path d="M1569.93 71.55L1569.93 71.55" stroke="rgba(94, 101, 19, 1)" stroke-width="1.5"></path><path d="M1569.93 71.55L1578.91 229.78" stroke="rgba(94, 101, 19, 1)" stroke-width="1.5"></path><path d="M1569.93 71.55L1444.87 241.06" stroke="rgba(94, 101, 19, 1)" stroke-width="1.5"></path><path d="M1569.93 71.55L1295.28 50.06" stroke="rgba(94, 101, 19, 1)" stroke-width="1.5"></path><path d="M1569.93 71.55L1580.14 359.71" stroke="rgba(94, 101, 19, 1)" stroke-width="1.5"></path><path d="M1578.91 229.78L1578.91 229.78" stroke="rgba(94, 101, 19, 1)" stroke-width="1.5"></path><path d="M1578.91 229.78L1580.14 359.71" stroke="rgba(94, 101, 19, 1)" stroke-width="1.5"></path><path d="M1578.91 229.78L1420.7 403.01" stroke="rgba(94, 101, 19, 1)" stroke-width="1.5"></path><path d="M1578.91 229.78L1286.5 236.98" stroke="rgba(94, 101, 19, 1)" stroke-width="1.5"></path><path d="M1578.91 229.78L1611.44 535.54" stroke="rgba(94, 101, 19, 1)" stroke-width="1.5"></path><path d="M1580.14 359.71L1580.14 359.71" stroke="rgba(94, 101, 19, 1)" stroke-width="1.5"></path><path d="M1580.14 359.71L1611.44 535.54" stroke="rgba(94, 101, 19, 1)" stroke-width="1.5"></path><path d="M1580.14 359.71L1444.87 241.06" stroke="rgba(94, 101, 19, 1)" stroke-width="1.5"></path><path d="M1580.14 359.71L1407.17 511.77" stroke="rgba(94, 101, 19, 1)" stroke-width="1.5"></path><path d="M1611.44 535.54L1611.44 535.54" stroke="rgba(94, 101, 19, 1)" stroke-width="1.5"></path><path d="M1611.44 535.54L1586.13 700.9" stroke="rgba(94, 101, 19, 1)" stroke-width="1.5"></path><path d="M1586.13 700.9L1586.13 700.9" stroke="rgba(94, 101, 19, 1)" stroke-width="1.5"></path><path d="M1586.13 700.9L1407.17 511.77" stroke="rgba(94, 101, 19, 1)" stroke-width="1.5"></path><path d="M1586.13 700.9L1300.29 646.21" stroke="rgba(94, 101, 19, 1)" stroke-width="1.5"></path><circle r="5" cx="-89.74" cy="385.89" fill="rgba(94, 101, 19, 1)"></circle><circle r="5" cx="-43.33" cy="531.1" fill="rgba(94, 101, 19, 1)"></circle><circle r="5" cx="-59.18" cy="658.02" fill="rgba(94, 101, 19, 1)"></circle><circle r="5" cx="73.09" cy="358.76" fill="rgba(94, 101, 19, 1)"></circle><circle r="5" cx="73.2" cy="548.68" fill="rgba(94, 101, 19, 1)"></circle><circle r="5" cx="40.83" cy="711.07" fill="rgba(94, 101, 19, 1)"></circle><circle r="5" cx="240.46" cy="410.94" fill="rgba(94, 101, 19, 1)"></circle><circle r="5" cx="212.28" cy="531.85" fill="rgba(94, 101, 19, 1)"></circle><circle r="5" cx="219.64" cy="658.04" fill="rgba(94, 101, 19, 1)"></circle><circle r="5" cx="407.2" cy="355.16" fill="rgba(94, 101, 19, 1)"></circle><circle r="5" cx="346.02" cy="534.32" fill="rgba(94, 101, 19, 1)"></circle><circle r="5" cx="345.01" cy="667.47" fill="rgba(94, 101, 19, 1)"></circle><circle r="5" cx="517.93" cy="544.65" fill="rgba(94, 101, 19, 1)"></circle><circle r="5" cx="488.53" cy="671.24" fill="rgba(94, 101, 19, 1)"></circle><circle r="5" cx="697.08" cy="204.06" fill="rgba(94, 101, 19, 1)"></circle><circle r="5" cx="639.48" cy="347.66" fill="rgba(94, 101, 19, 1)"></circle><circle r="5" cx="653.84" cy="493.39" fill="rgba(94, 101, 19, 1)"></circle><circle r="5" cx="643.38" cy="642.51" fill="rgba(94, 101, 19, 1)"></circle><circle r="5" cx="858.18" cy="220.18" fill="rgba(94, 101, 19, 1)"></circle><circle r="5" cx="834.99" cy="398.72" fill="rgba(94, 101, 19, 1)"></circle><circle r="5" cx="796.95" cy="540.07" fill="rgba(94, 101, 19, 1)"></circle><circle r="5" cx="858.04" cy="654.61" fill="rgba(94, 101, 19, 1)"></circle><circle r="5" cx="992.08" cy="-51.58" fill="rgba(94, 101, 19, 1)"></circle><circle r="5" cx="943.02" cy="41.28" fill="rgba(94, 101, 19, 1)"></circle><circle r="5" cx="966.23" cy="399.88" fill="rgba(94, 101, 19, 1)"></circle><circle r="5" cx="969.62" cy="528.55" fill="rgba(94, 101, 19, 1)"></circle><circle r="5" cx="975.23" cy="677.71" fill="rgba(94, 101, 19, 1)"></circle><circle r="5" cx="1123.49" cy="-67.62" fill="rgba(94, 101, 19, 1)"></circle><circle r="5" cx="1133.6" cy="81.19" fill="rgba(94, 101, 19, 1)"></circle><circle r="5" cx="1107.72" cy="226.55" fill="rgba(94, 101, 19, 1)"></circle><circle r="5" cx="1159.78" cy="378.99" fill="rgba(94, 101, 19, 1)"></circle><circle r="5" cx="1157.55" cy="499.32" fill="rgba(94, 101, 19, 1)"></circle><circle r="5" cx="1127" cy="654.75" fill="rgba(94, 101, 19, 1)"></circle><circle r="5" cx="1295.28" cy="50.06" fill="rgba(94, 101, 19, 1)"></circle><circle r="5" cx="1286.5" cy="236.98" fill="rgba(94, 101, 19, 1)"></circle><circle r="5" cx="1269.66" cy="492.6" fill="rgba(94, 101, 19, 1)"></circle><circle r="5" cx="1300.29" cy="646.21" fill="rgba(94, 101, 19, 1)"></circle><circle r="5" cx="1388.82" cy="-42.09" fill="rgba(94, 101, 19, 1)"></circle><circle r="5" cx="1444.87" cy="241.06" fill="rgba(94, 101, 19, 1)"></circle><circle r="5" cx="1420.7" cy="403.01" fill="rgba(94, 101, 19, 1)"></circle><circle r="5" cx="1407.17" cy="511.77" fill="rgba(94, 101, 19, 1)"></circle><circle r="5" cx="1569.93" cy="71.55" fill="rgba(94, 101, 19, 1)"></circle><circle r="5" cx="1578.91" cy="229.78" fill="rgba(94, 101, 19, 1)"></circle><circle r="5" cx="1580.14" cy="359.71" fill="rgba(94, 101, 19, 1)"></circle><circle r="5" cx="1611.44" cy="535.54" fill="rgba(94, 101, 19, 1)"></circle><circle r="5" cx="1586.13" cy="700.9" fill="rgba(94, 101, 19, 1)"></circle><path d="M559.3 395.16L559.3 395.16" stroke="hsl(70.80000000000001, 77.2%, 51.5%)" stroke-width="1.5"></path><path d="M559.3 395.16L511.76 528.18" stroke="hsl(70.80000000000001, 77.2%, 51.5%)" stroke-width="1.5"></path><path d="M559.3 395.16L666.52 542.98" stroke="hsl(70.80000000000001, 77.2%, 51.5%)" stroke-width="1.5"></path><path d="M559.3 395.16L398.78 525.88" stroke="hsl(70.80000000000001, 77.2%, 51.5%)" stroke-width="1.5"></path><path d="M522.2 660.54L522.2 660.54" stroke="hsl(70.80000000000001, 77.2%, 51.5%)" stroke-width="1.5"></path><path d="M522.2 660.54L399.07 665.13" stroke="hsl(70.80000000000001, 77.2%, 51.5%)" stroke-width="1.5"></path><path d="M522.2 660.54L511.76 528.18" stroke="hsl(70.80000000000001, 77.2%, 51.5%)" stroke-width="1.5"></path><path d="M832.31 409.53L832.31 409.53" stroke="hsl(70.80000000000001, 77.2%, 51.5%)" stroke-width="1.5"></path><path d="M832.31 409.53L821.66 531.13" stroke="hsl(70.80000000000001, 77.2%, 51.5%)" stroke-width="1.5"></path><path d="M832.31 409.53L978.39 357.03" stroke="hsl(70.80000000000001, 77.2%, 51.5%)" stroke-width="1.5"></path><path d="M832.31 409.53L1003.4 498.88" stroke="hsl(70.80000000000001, 77.2%, 51.5%)" stroke-width="1.5"></path><path d="M832.31 409.53L666.52 542.98" stroke="hsl(70.80000000000001, 77.2%, 51.5%)" stroke-width="1.5"></path><path d="M825.27 663.03L825.27 663.03" stroke="hsl(70.80000000000001, 77.2%, 51.5%)" stroke-width="1.5"></path><path d="M825.27 663.03L821.66 531.13" stroke="hsl(70.80000000000001, 77.2%, 51.5%)" stroke-width="1.5"></path><path d="M825.27 663.03L989.71 706.81" stroke="hsl(70.80000000000001, 77.2%, 51.5%)" stroke-width="1.5"></path><path d="M825.27 663.03L666.52 542.98" stroke="hsl(70.80000000000001, 77.2%, 51.5%)" stroke-width="1.5"></path><path d="M825.27 663.03L1003.4 498.88" stroke="hsl(70.80000000000001, 77.2%, 51.5%)" stroke-width="1.5"></path><path d="M825.27 663.03L832.31 409.53" stroke="hsl(70.80000000000001, 77.2%, 51.5%)" stroke-width="1.5"></path><path d="M825.27 663.03L522.2 660.54" stroke="hsl(70.80000000000001, 77.2%, 51.5%)" stroke-width="1.5"></path><path d="M1003.4 498.88L1003.4 498.88" stroke="hsl(70.80000000000001, 77.2%, 51.5%)" stroke-width="1.5"></path><path d="M1003.4 498.88L978.39 357.03" stroke="hsl(70.80000000000001, 77.2%, 51.5%)" stroke-width="1.5"></path><path d="M1003.4 498.88L1148.45 553.58" stroke="hsl(70.80000000000001, 77.2%, 51.5%)" stroke-width="1.5"></path><path d="M1003.4 498.88L821.66 531.13" stroke="hsl(70.80000000000001, 77.2%, 51.5%)" stroke-width="1.5"></path><path d="M1003.4 498.88L1157.6 367.12" stroke="hsl(70.80000000000001, 77.2%, 51.5%)" stroke-width="1.5"></path><path d="M1250.73 530.93L1250.73 530.93" stroke="hsl(70.80000000000001, 77.2%, 51.5%)" stroke-width="1.5"></path><path d="M1250.73 530.93L1148.45 553.58" stroke="hsl(70.80000000000001, 77.2%, 51.5%)" stroke-width="1.5"></path><path d="M1250.73 530.93L1155.08 641.58" stroke="hsl(70.80000000000001, 77.2%, 51.5%)" stroke-width="1.5"></path><path d="M1250.73 530.93L1283.4 684.29" stroke="hsl(70.80000000000001, 77.2%, 51.5%)" stroke-width="1.5"></path><path d="M1250.73 530.93L1157.6 367.12" stroke="hsl(70.80000000000001, 77.2%, 51.5%)" stroke-width="1.5"></path><path d="M1250.73 530.93L1296.21 345.46" stroke="hsl(70.80000000000001, 77.2%, 51.5%)" stroke-width="1.5"></path><path d="M1250.73 530.93L1446.54 502.27" stroke="hsl(70.80000000000001, 77.2%, 51.5%)" stroke-width="1.5"></path><path d="M1389.19 -61.06L1389.19 -61.06" stroke="hsl(70.80000000000001, 77.2%, 51.5%)" stroke-width="1.5"></path><path d="M1389.19 -61.06L1393.14 38.3" stroke="hsl(70.80000000000001, 77.2%, 51.5%)" stroke-width="1.5"></path><path d="M1389.19 -61.06L1249.28 -94.35" stroke="hsl(70.80000000000001, 77.2%, 51.5%)" stroke-width="1.5"></path><path d="M1389.19 -61.06L1545.26 -102.03" stroke="hsl(70.80000000000001, 77.2%, 51.5%)" stroke-width="1.5"></path><path d="M1389.19 -61.06L1271.52 105.08" stroke="hsl(70.80000000000001, 77.2%, 51.5%)" stroke-width="1.5"></path><path d="M1389.19 -61.06L1583.62 93.57" stroke="hsl(70.80000000000001, 77.2%, 51.5%)" stroke-width="1.5"></path><path d="M1606.78 356.62L1606.78 356.62" stroke="hsl(70.80000000000001, 77.2%, 51.5%)" stroke-width="1.5"></path><path d="M1606.78 356.62L1588.47 257.52" stroke="hsl(70.80000000000001, 77.2%, 51.5%)" stroke-width="1.5"></path><path d="M1606.78 356.62L1556.81 497.02" stroke="hsl(70.80000000000001, 77.2%, 51.5%)" stroke-width="1.5"></path><path d="M-71 516.31L-71 516.31" stroke="hsl(70.80000000000001, 77.2%, 51.5%)" stroke-width="1.5"></path><path d="M-71 516.31L-52.81 639.83" stroke="hsl(70.80000000000001, 77.2%, 51.5%)" stroke-width="1.5"></path><path d="M-71 516.31L71.39 498.59" stroke="hsl(70.80000000000001, 77.2%, 51.5%)" stroke-width="1.5"></path><path d="M-52.81 639.83L-52.81 639.83" stroke="hsl(70.80000000000001, 77.2%, 51.5%)" stroke-width="1.5"></path><path d="M-52.81 639.83L52.44 689.91" stroke="hsl(70.80000000000001, 77.2%, 51.5%)" stroke-width="1.5"></path><path d="M-52.81 639.83L71.39 498.59" stroke="hsl(70.80000000000001, 77.2%, 51.5%)" stroke-width="1.5"></path><path d="M71.39 498.59L71.39 498.59" stroke="hsl(70.80000000000001, 77.2%, 51.5%)" stroke-width="1.5"></path><path d="M71.39 498.59L239.94 549.64" stroke="hsl(70.80000000000001, 77.2%, 51.5%)" stroke-width="1.5"></path><path d="M71.39 498.59L52.44 689.91" stroke="hsl(70.80000000000001, 77.2%, 51.5%)" stroke-width="1.5"></path><path d="M71.39 498.59L237.61 695.98" stroke="hsl(70.80000000000001, 77.2%, 51.5%)" stroke-width="1.5"></path><path d="M71.39 498.59L398.78 525.88" stroke="hsl(70.80000000000001, 77.2%, 51.5%)" stroke-width="1.5"></path><path d="M52.44 689.91L52.44 689.91" stroke="hsl(70.80000000000001, 77.2%, 51.5%)" stroke-width="1.5"></path><path d="M52.44 689.91L237.61 695.98" stroke="hsl(70.80000000000001, 77.2%, 51.5%)" stroke-width="1.5"></path><path d="M52.44 689.91L-71 516.31" stroke="hsl(70.80000000000001, 77.2%, 51.5%)" stroke-width="1.5"></path><path d="M239.94 549.64L239.94 549.64" stroke="hsl(70.80000000000001, 77.2%, 51.5%)" stroke-width="1.5"></path><path d="M239.94 549.64L237.61 695.98" stroke="hsl(70.80000000000001, 77.2%, 51.5%)" stroke-width="1.5"></path><path d="M239.94 549.64L398.78 525.88" stroke="hsl(70.80000000000001, 77.2%, 51.5%)" stroke-width="1.5"></path><path d="M237.61 695.98L237.61 695.98" stroke="hsl(70.80000000000001, 77.2%, 51.5%)" stroke-width="1.5"></path><path d="M237.61 695.98L399.07 665.13" stroke="hsl(70.80000000000001, 77.2%, 51.5%)" stroke-width="1.5"></path><path d="M398.78 525.88L398.78 525.88" stroke="hsl(70.80000000000001, 77.2%, 51.5%)" stroke-width="1.5"></path><path d="M398.78 525.88L511.76 528.18" stroke="hsl(70.80000000000001, 77.2%, 51.5%)" stroke-width="1.5"></path><path d="M398.78 525.88L399.07 665.13" stroke="hsl(70.80000000000001, 77.2%, 51.5%)" stroke-width="1.5"></path><path d="M399.07 665.13L399.07 665.13" stroke="hsl(70.80000000000001, 77.2%, 51.5%)" stroke-width="1.5"></path><path d="M399.07 665.13L511.76 528.18" stroke="hsl(70.80000000000001, 77.2%, 51.5%)" stroke-width="1.5"></path><path d="M399.07 665.13L239.94 549.64" stroke="hsl(70.80000000000001, 77.2%, 51.5%)" stroke-width="1.5"></path><path d="M511.76 528.18L511.76 528.18" stroke="hsl(70.80000000000001, 77.2%, 51.5%)" stroke-width="1.5"></path><path d="M666.52 542.98L666.52 542.98" stroke="hsl(70.80000000000001, 77.2%, 51.5%)" stroke-width="1.5"></path><path d="M666.52 542.98L511.76 528.18" stroke="hsl(70.80000000000001, 77.2%, 51.5%)" stroke-width="1.5"></path><path d="M666.52 542.98L821.66 531.13" stroke="hsl(70.80000000000001, 77.2%, 51.5%)" stroke-width="1.5"></path><path d="M666.52 542.98L522.2 660.54" stroke="hsl(70.80000000000001, 77.2%, 51.5%)" stroke-width="1.5"></path><path d="M821.66 531.13L821.66 531.13" stroke="hsl(70.80000000000001, 77.2%, 51.5%)" stroke-width="1.5"></path><path d="M1004.79 236.62L1004.79 236.62" stroke="hsl(70.80000000000001, 77.2%, 51.5%)" stroke-width="1.5"></path><path d="M1004.79 236.62L1118.63 256.35" stroke="hsl(70.80000000000001, 77.2%, 51.5%)" stroke-width="1.5"></path><path d="M1004.79 236.62L978.39 357.03" stroke="hsl(70.80000000000001, 77.2%, 51.5%)" stroke-width="1.5"></path><path d="M1004.79 236.62L1157.6 367.12" stroke="hsl(70.80000000000001, 77.2%, 51.5%)" stroke-width="1.5"></path><path d="M978.39 357.03L978.39 357.03" stroke="hsl(70.80000000000001, 77.2%, 51.5%)" stroke-width="1.5"></path><path d="M978.39 357.03L1118.63 256.35" stroke="hsl(70.80000000000001, 77.2%, 51.5%)" stroke-width="1.5"></path><path d="M978.39 357.03L1157.6 367.12" stroke="hsl(70.80000000000001, 77.2%, 51.5%)" stroke-width="1.5"></path><path d="M989.71 706.81L989.71 706.81" stroke="hsl(70.80000000000001, 77.2%, 51.5%)" stroke-width="1.5"></path><path d="M989.71 706.81L1155.08 641.58" stroke="hsl(70.80000000000001, 77.2%, 51.5%)" stroke-width="1.5"></path><path d="M1118.63 256.35L1118.63 256.35" stroke="hsl(70.80000000000001, 77.2%, 51.5%)" stroke-width="1.5"></path><path d="M1118.63 256.35L1157.6 367.12" stroke="hsl(70.80000000000001, 77.2%, 51.5%)" stroke-width="1.5"></path><path d="M1118.63 256.35L1296.21 345.46" stroke="hsl(70.80000000000001, 77.2%, 51.5%)" stroke-width="1.5"></path><path d="M1157.6 367.12L1157.6 367.12" stroke="hsl(70.80000000000001, 77.2%, 51.5%)" stroke-width="1.5"></path><path d="M1157.6 367.12L1296.21 345.46" stroke="hsl(70.80000000000001, 77.2%, 51.5%)" stroke-width="1.5"></path><path d="M1148.45 553.58L1148.45 553.58" stroke="hsl(70.80000000000001, 77.2%, 51.5%)" stroke-width="1.5"></path><path d="M1148.45 553.58L1155.08 641.58" stroke="hsl(70.80000000000001, 77.2%, 51.5%)" stroke-width="1.5"></path><path d="M1155.08 641.58L1155.08 641.58" stroke="hsl(70.80000000000001, 77.2%, 51.5%)" stroke-width="1.5"></path><path d="M1155.08 641.58L1283.4 684.29" stroke="hsl(70.80000000000001, 77.2%, 51.5%)" stroke-width="1.5"></path><path d="M1249.28 -94.35L1249.28 -94.35" stroke="hsl(70.80000000000001, 77.2%, 51.5%)" stroke-width="1.5"></path><path d="M1249.28 -94.35L1393.14 38.3" stroke="hsl(70.80000000000001, 77.2%, 51.5%)" stroke-width="1.5"></path><path d="M1249.28 -94.35L1271.52 105.08" stroke="hsl(70.80000000000001, 77.2%, 51.5%)" stroke-width="1.5"></path><path d="M1249.28 -94.35L1545.26 -102.03" stroke="hsl(70.80000000000001, 77.2%, 51.5%)" stroke-width="1.5"></path><path d="M1249.28 -94.35L1448.19 220.52" stroke="hsl(70.80000000000001, 77.2%, 51.5%)" stroke-width="1.5"></path><path d="M1271.52 105.08L1271.52 105.08" stroke="hsl(70.80000000000001, 77.2%, 51.5%)" stroke-width="1.5"></path><path d="M1271.52 105.08L1393.14 38.3" stroke="hsl(70.80000000000001, 77.2%, 51.5%)" stroke-width="1.5"></path><path d="M1296.21 345.46L1296.21 345.46" stroke="hsl(70.80000000000001, 77.2%, 51.5%)" stroke-width="1.5"></path><path d="M1283.4 684.29L1283.4 684.29" stroke="hsl(70.80000000000001, 77.2%, 51.5%)" stroke-width="1.5"></path><path d="M1283.4 684.29L1402.53 700.02" stroke="hsl(70.80000000000001, 77.2%, 51.5%)" stroke-width="1.5"></path><path d="M1283.4 684.29L1148.45 553.58" stroke="hsl(70.80000000000001, 77.2%, 51.5%)" stroke-width="1.5"></path><path d="M1393.14 38.3L1393.14 38.3" stroke="hsl(70.80000000000001, 77.2%, 51.5%)" stroke-width="1.5"></path><path d="M1448.19 220.52L1448.19 220.52" stroke="hsl(70.80000000000001, 77.2%, 51.5%)" stroke-width="1.5"></path><path d="M1448.19 220.52L1588.47 257.52" stroke="hsl(70.80000000000001, 77.2%, 51.5%)" stroke-width="1.5"></path><path d="M1448.19 220.52L1583.62 93.57" stroke="hsl(70.80000000000001, 77.2%, 51.5%)" stroke-width="1.5"></path><path d="M1448.19 220.52L1393.14 38.3" stroke="hsl(70.80000000000001, 77.2%, 51.5%)" stroke-width="1.5"></path><path d="M1448.19 220.52L1296.21 345.46" stroke="hsl(70.80000000000001, 77.2%, 51.5%)" stroke-width="1.5"></path><path d="M1448.19 220.52L1606.78 356.62" stroke="hsl(70.80000000000001, 77.2%, 51.5%)" stroke-width="1.5"></path><path d="M1446.54 502.27L1446.54 502.27" stroke="hsl(70.80000000000001, 77.2%, 51.5%)" stroke-width="1.5"></path><path d="M1446.54 502.27L1556.81 497.02" stroke="hsl(70.80000000000001, 77.2%, 51.5%)" stroke-width="1.5"></path><path d="M1402.53 700.02L1402.53 700.02" stroke="hsl(70.80000000000001, 77.2%, 51.5%)" stroke-width="1.5"></path><path d="M1402.53 700.02L1596.14 653.03" stroke="hsl(70.80000000000001, 77.2%, 51.5%)" stroke-width="1.5"></path><path d="M1402.53 700.02L1446.54 502.27" stroke="hsl(70.80000000000001, 77.2%, 51.5%)" stroke-width="1.5"></path><path d="M1402.53 700.02L1250.73 530.93" stroke="hsl(70.80000000000001, 77.2%, 51.5%)" stroke-width="1.5"></path><path d="M1545.26 -102.03L1545.26 -102.03" stroke="hsl(70.80000000000001, 77.2%, 51.5%)" stroke-width="1.5"></path><path d="M1545.26 -102.03L1583.62 93.57" stroke="hsl(70.80000000000001, 77.2%, 51.5%)" stroke-width="1.5"></path><path d="M1545.26 -102.03L1393.14 38.3" stroke="hsl(70.80000000000001, 77.2%, 51.5%)" stroke-width="1.5"></path><path d="M1583.62 93.57L1583.62 93.57" stroke="hsl(70.80000000000001, 77.2%, 51.5%)" stroke-width="1.5"></path><path d="M1583.62 93.57L1588.47 257.52" stroke="hsl(70.80000000000001, 77.2%, 51.5%)" stroke-width="1.5"></path><path d="M1583.62 93.57L1393.14 38.3" stroke="hsl(70.80000000000001, 77.2%, 51.5%)" stroke-width="1.5"></path><path d="M1588.47 257.52L1588.47 257.52" stroke="hsl(70.80000000000001, 77.2%, 51.5%)" stroke-width="1.5"></path><path d="M1588.47 257.52L1556.81 497.02" stroke="hsl(70.80000000000001, 77.2%, 51.5%)" stroke-width="1.5"></path><path d="M1588.47 257.52L1446.54 502.27" stroke="hsl(70.80000000000001, 77.2%, 51.5%)" stroke-width="1.5"></path><path d="M1588.47 257.52L1393.14 38.3" stroke="hsl(70.80000000000001, 77.2%, 51.5%)" stroke-width="1.5"></path><path d="M1556.81 497.02L1556.81 497.02" stroke="hsl(70.80000000000001, 77.2%, 51.5%)" stroke-width="1.5"></path><path d="M1596.14 653.03L1596.14 653.03" stroke="hsl(70.80000000000001, 77.2%, 51.5%)" stroke-width="1.5"></path><path d="M1596.14 653.03L1556.81 497.02" stroke="hsl(70.80000000000001, 77.2%, 51.5%)" stroke-width="1.5"></path><circle r="25" cx="559.3" cy="395.16" fill="url(&quot;#SvgjsRadialGradient1025&quot;)"></circle><circle r="25" cx="522.2" cy="660.54" fill="url(&quot;#SvgjsRadialGradient1025&quot;)"></circle><circle r="25" cx="832.31" cy="409.53" fill="url(&quot;#SvgjsRadialGradient1025&quot;)"></circle><circle r="25" cx="825.27" cy="663.03" fill="url(&quot;#SvgjsRadialGradient1025&quot;)"></circle><circle r="25" cx="1003.4" cy="498.88" fill="url(&quot;#SvgjsRadialGradient1025&quot;)"></circle><circle r="25" cx="1250.73" cy="530.93" fill="url(&quot;#SvgjsRadialGradient1025&quot;)"></circle><circle r="25" cx="1389.19" cy="-61.06" fill="url(&quot;#SvgjsRadialGradient1025&quot;)"></circle><circle r="25" cx="1606.78" cy="356.62" fill="url(&quot;#SvgjsRadialGradient1025&quot;)"></circle><circle r="5" cx="-71" cy="516.31" fill="#cbd98b"></circle><circle r="5" cx="-52.81" cy="639.83" fill="#cbd98b"></circle><circle r="5" cx="71.39" cy="498.59" fill="#cbd98b"></circle><circle r="5" cx="52.44" cy="689.91" fill="#cbd98b"></circle><circle r="5" cx="239.94" cy="549.64" fill="#cbd98b"></circle><circle r="5" cx="237.61" cy="695.98" fill="#cbd98b"></circle><circle r="5" cx="398.78" cy="525.88" fill="#cbd98b"></circle><circle r="5" cx="399.07" cy="665.13" fill="#cbd98b"></circle><circle r="5" cx="511.76" cy="528.18" fill="#cbd98b"></circle><circle r="5" cx="666.52" cy="542.98" fill="#cbd98b"></circle><circle r="5" cx="821.66" cy="531.13" fill="#cbd98b"></circle><circle r="5" cx="1004.79" cy="236.62" fill="#cbd98b"></circle><circle r="5" cx="978.39" cy="357.03" fill="#cbd98b"></circle><circle r="5" cx="989.71" cy="706.81" fill="#cbd98b"></circle><circle r="5" cx="1118.63" cy="256.35" fill="#cbd98b"></circle><circle r="5" cx="1157.6" cy="367.12" fill="#cbd98b"></circle><circle r="5" cx="1148.45" cy="553.58" fill="#cbd98b"></circle><circle r="5" cx="1155.08" cy="641.58" fill="#cbd98b"></circle><circle r="5" cx="1249.28" cy="-94.35" fill="#cbd98b"></circle><circle r="5" cx="1271.52" cy="105.08" fill="#cbd98b"></circle><circle r="5" cx="1296.21" cy="345.46" fill="#cbd98b"></circle><circle r="5" cx="1283.4" cy="684.29" fill="#cbd98b"></circle><circle r="5" cx="1393.14" cy="38.3" fill="#cbd98b"></circle><circle r="5" cx="1448.19" cy="220.52" fill="#cbd98b"></circle><circle r="5" cx="1446.54" cy="502.27" fill="#cbd98b"></circle><circle r="5" cx="1402.53" cy="700.02" fill="#cbd98b"></circle><circle r="5" cx="1545.26" cy="-102.03" fill="#cbd98b"></circle><circle r="5" cx="1583.62" cy="93.57" fill="#cbd98b"></circle><circle r="5" cx="1588.47" cy="257.52" fill="#cbd98b"></circle><circle r="5" cx="1556.81" cy="497.02" fill="#cbd98b"></circle><circle r="5" cx="1596.14" cy="653.03" fill="#cbd98b"></circle></g><defs><mask id="SvgjsMask1024"><rect width="1440" height="560" fill="#ffffff"></rect></mask><radialGradient id="SvgjsRadialGradient1025"><stop stop-color="#ffffff" offset="0.1"></stop><stop stop-color="rgba(151, 179, 23, 1)" offset="0.2"></stop><stop stop-color="rgba(151, 179, 23, 0)" offset="1"></stop></radialGradient></defs></svg>